<?xml version="1.0" encoding="utf-8"?>
<!-- Generator: Adobe Illustrator 28.3.0, SVG Export Plug-In . SVG Version: 6.00 Build 0)  -->
<svg version="1.1" id="Layer_1" xmlns="http://www.w3.org/2000/svg" xmlns:xlink="http://www.w3.org/1999/xlink" x="0px" y="0px"
	 viewBox="0 0 198 44" style="enable-background:new 0 0 198 44;" xml:space="preserve">
<style type="text/css">
	.st0{fill:#E92A06;}
	.st1{fill:#FFFFFF;}
</style>
<g class="st1">
	<rect x="48.6" y="12.2" width="4" height="19.6"/>
	<path d="M64,23.4l-2.6-0.5c-0.7-0.1-1.1-0.3-1.4-0.6c-0.3-0.3-0.4-0.6-0.4-0.9c0-0.4,0.2-0.8,0.6-1.1c0.4-0.3,1-0.4,1.6-0.4
		c0.7,0,1.3,0.2,1.7,0.5c0.4,0.3,0.7,0.8,0.8,1.3l3.5-0.5c-0.1-0.8-0.5-1.6-1-2.2c-0.5-0.6-1.2-1.1-2.1-1.4
		c-0.9-0.3-1.9-0.5-3.1-0.5c-1.2,0-2.3,0.2-3.2,0.6s-1.6,0.9-2.1,1.6c-0.5,0.7-0.8,1.5-0.8,2.4c0,1.1,0.4,2,1.1,2.7
		c0.7,0.7,1.8,1.2,3.2,1.5l2.5,0.5c0.6,0.1,1.1,0.3,1.4,0.6c0.3,0.2,0.5,0.6,0.5,0.9c0,0.4-0.2,0.8-0.6,1.1c-0.4,0.3-1,0.4-1.8,0.4
		c-0.8,0-1.4-0.2-1.9-0.5c-0.5-0.3-0.8-0.8-1-1.5l-3.7,0.5c0.1,0.9,0.5,1.7,1.1,2.4c0.6,0.7,1.3,1.2,2.2,1.5c0.9,0.3,2,0.5,3.2,0.5
		c1.3,0,2.4-0.2,3.4-0.6c1-0.4,1.7-1,2.3-1.7c0.6-0.7,0.8-1.6,0.8-2.5c0-1-0.3-1.9-1-2.5C66.5,24.1,65.5,23.7,64,23.4z"/>
	<path d="M81.1,18c-1.1-0.6-2.3-0.9-3.8-0.9c-1.5,0-2.7,0.3-3.8,0.9c-1.1,0.6-1.9,1.5-2.5,2.6c-0.6,1.1-0.9,2.4-0.9,4
		c0,1.5,0.3,2.8,0.9,3.9c0.6,1.1,1.4,2,2.5,2.6c1.1,0.6,2.3,0.9,3.8,0.9c1.5,0,2.7-0.3,3.8-0.9c1.1-0.6,1.9-1.5,2.5-2.6
		c0.6-1.1,0.9-2.4,0.9-3.9c0-1.5-0.3-2.8-0.9-4C83,19.5,82.2,18.6,81.1,18z M80.1,26.8c-0.2,0.7-0.6,1.2-1.1,1.6
		c-0.5,0.4-1,0.6-1.7,0.6c-0.7,0-1.3-0.2-1.7-0.6c-0.5-0.4-0.8-0.9-1.1-1.6c-0.2-0.7-0.4-1.4-0.4-2.3c0-0.9,0.1-1.6,0.4-2.3
		c0.2-0.7,0.6-1.2,1.1-1.6c0.5-0.4,1.1-0.6,1.7-0.6c0.7,0,1.3,0.2,1.7,0.6c0.5,0.4,0.8,0.9,1.1,1.6c0.2,0.7,0.4,1.4,0.4,2.3
		C80.5,25.4,80.4,26.2,80.1,26.8z"/>
	<path d="M96.2,24.4h4.2c0,0.8-0.2,1.5-0.5,2.1c-0.4,0.6-0.9,1.1-1.6,1.5c-0.7,0.3-1.5,0.5-2.4,0.5c-1.1,0-2-0.3-2.8-0.8
		c-0.8-0.5-1.4-1.3-1.8-2.2c-0.4-1-0.6-2.1-0.6-3.5c0-1.4,0.2-2.6,0.6-3.5c0.4-1,1-1.7,1.8-2.2c0.8-0.5,1.7-0.8,2.7-0.8
		c0.6,0,1.1,0.1,1.5,0.2s0.9,0.3,1.2,0.6c0.4,0.3,0.7,0.6,0.9,1c0.3,0.4,0.4,0.8,0.6,1.3h4.1c-0.1-1-0.4-1.9-0.9-2.7
		c-0.5-0.8-1.1-1.5-1.8-2.1c-0.7-0.6-1.6-1.1-2.6-1.4c-1-0.3-2-0.5-3.1-0.5c-1.7,0-3.3,0.4-4.7,1.2c-1.4,0.8-2.5,2-3.3,3.5
		c-0.8,1.5-1.2,3.3-1.2,5.4c0,2.1,0.4,3.8,1.2,5.3c0.8,1.5,1.9,2.7,3.2,3.5c1.4,0.8,3,1.2,4.8,1.2c1.6,0,3.1-0.3,4.4-1
		c1.3-0.7,2.3-1.6,3-2.9c0.7-1.2,1.1-2.7,1.1-4.4v-2.5h-8.2V24.4z"/>
	<path d="M116.6,25.6c0,0.7-0.1,1.2-0.4,1.7c-0.2,0.5-0.6,0.8-1,1c-0.4,0.2-0.9,0.4-1.5,0.4c-0.8,0-1.5-0.3-1.9-0.8
		c-0.5-0.5-0.7-1.2-0.7-2.1v-8.5h-3.9v9.2c0,1.1,0.2,2.1,0.6,3c0.4,0.8,1,1.5,1.7,1.9c0.8,0.4,1.6,0.7,2.6,0.7c1.2,0,2.3-0.3,3-1
		c0.6-0.5,1.1-1.2,1.5-2l0,2.8h3.7V17.3h-3.9V25.6z"/>
	<path d="M134.2,18.2c-0.6-0.4-1.2-0.7-2-0.9c-0.7-0.2-1.5-0.3-2.3-0.3c-1.1,0-2.1,0.2-3,0.5c-0.9,0.3-1.6,0.8-2.2,1.4
		c-0.6,0.6-1,1.4-1.2,2.2l3.6,0.5c0.1-0.3,0.3-0.6,0.5-0.9c0.2-0.3,0.5-0.5,0.9-0.6c0.4-0.2,0.8-0.2,1.3-0.2c0.5,0,0.9,0.1,1.2,0.2
		c0.3,0.2,0.6,0.4,0.8,0.7c0.2,0.3,0.3,0.6,0.3,1v0.1c0,0.3-0.1,0.6-0.4,0.7c-0.2,0.2-0.6,0.3-1.1,0.3c-0.5,0.1-1.2,0.2-2.1,0.2
		c-0.7,0.1-1.4,0.2-2.1,0.4c-0.7,0.2-1.3,0.4-1.8,0.8c-0.5,0.3-0.9,0.8-1.2,1.3c-0.3,0.5-0.4,1.2-0.4,2c0,1,0.2,1.8,0.6,2.4
		c0.4,0.6,1,1.1,1.7,1.5c0.7,0.3,1.6,0.5,2.5,0.5c0.7,0,1.4-0.1,1.9-0.3c0.5-0.2,1-0.5,1.4-0.8c0.4-0.3,0.7-0.7,0.9-1.2h0.1v2h3.7
		V22c0-0.9-0.2-1.6-0.5-2.2C135.2,19.2,134.8,18.6,134.2,18.2z M132.1,26.6c0,0.5-0.1,1-0.4,1.4c-0.3,0.4-0.6,0.7-1.1,1
		c-0.5,0.2-1,0.4-1.6,0.4c-0.4,0-0.8-0.1-1.1-0.2s-0.6-0.3-0.8-0.6c-0.2-0.3-0.3-0.6-0.3-0.9c0-0.4,0.1-0.7,0.3-1
		c0.2-0.3,0.5-0.5,0.9-0.6c0.4-0.2,0.8-0.3,1.3-0.3c0.2,0,0.5-0.1,0.8-0.1c0.3,0,0.6-0.1,0.8-0.1c0.3-0.1,0.5-0.1,0.7-0.2
		c0.2-0.1,0.4-0.1,0.5-0.2V26.6z"/>
	<path d="M146.7,17.1c-0.8,0-1.6,0.2-2.2,0.7c-0.6,0.5-1.1,1.1-1.3,2h-0.1v-2.5h-3.8v14.5h3.9v-8.2c0-0.6,0.1-1.2,0.4-1.6
		c0.3-0.5,0.6-0.8,1.1-1.1c0.5-0.3,1-0.4,1.6-0.4c0.3,0,0.6,0,1,0c0.3,0,0.6,0.1,0.7,0.1v-3.5c-0.2,0-0.4-0.1-0.6-0.1
		C147.1,17.1,146.9,17.1,146.7,17.1z"/>
	<path d="M159.1,19.6H159c-0.2-0.4-0.5-0.8-0.8-1.2c-0.4-0.4-0.8-0.7-1.3-1c-0.5-0.3-1.2-0.4-2-0.4c-1.1,0-2.1,0.3-3,0.9
		c-0.9,0.6-1.6,1.4-2.2,2.5c-0.5,1.1-0.8,2.5-0.8,4.1c0,1.6,0.3,3,0.8,4.1c0.5,1.1,1.2,2,2.1,2.6c0.9,0.6,1.9,0.9,3.1,0.9
		c0.8,0,1.4-0.1,2-0.4c0.5-0.2,1-0.6,1.4-1c0.4-0.4,0.6-0.8,0.8-1.2h0.1v2.3h3.9V12.2h-3.9V19.6z M158.8,26.8
		c-0.3,0.6-0.6,1.2-1.1,1.5c-0.5,0.4-1,0.5-1.7,0.5c-0.7,0-1.2-0.2-1.7-0.5c-0.5-0.4-0.8-0.9-1.1-1.5c-0.2-0.7-0.4-1.4-0.4-2.3
		c0-0.9,0.1-1.6,0.4-2.3c0.2-0.6,0.6-1.2,1.1-1.5c0.5-0.4,1-0.5,1.7-0.5c0.7,0,1.3,0.2,1.7,0.5c0.5,0.4,0.8,0.9,1.1,1.5
		c0.2,0.6,0.4,1.4,0.4,2.3C159.2,25.4,159.1,26.2,158.8,26.8z"/>
	<path d="M168.9,27.5c-0.6,0-1.2,0.2-1.6,0.7c-0.4,0.4-0.7,1-0.7,1.6c0,0.6,0.2,1.2,0.7,1.6c0.4,0.4,1,0.7,1.6,0.7
		c0.6,0,1.2-0.2,1.6-0.7c0.4-0.4,0.7-1,0.7-1.6c0-0.6-0.2-1.2-0.7-1.6C170.1,27.7,169.5,27.5,168.9,27.5z"/>
	<path d="M180.7,12.2l-7,19.6h3.2l1.8-5.1h7.7l1.8,5.1h3.2l-7.1-19.6H180.7z M185.5,24.1h-6l1.1-3.3c0.3-0.9,0.6-1.9,1-3.1
		c0.3-0.9,0.6-2,0.9-3.1c0.3,1.2,0.6,2.2,0.9,3.1c0.4,1.2,0.7,2.2,1,3.1L185.5,24.1z"/>
	<rect x="194.1" y="12.2" width="3" height="19.6"/>
</g>
<g>
	<g>
		<path class="st0" d="M27.2,27.9l-0.1,0.2L20.5,40l-0.1,0.1H6.9L6.8,40l-4.8-8.6L2,31.2l5.7-3.6l0.1,0.2l2,3.7c1.7,3,6,3,7.6,0
			l3.9-7l0.1-0.2L27.2,27.9z"/>
	</g>
	<g>
		<path class="st0" d="M17.7,10.8l0.2,0l13.6-0.3l0.1,0l6.8,11.7l-0.1,0.1l-5.1,8.4L33.1,31l-6-3.2l0.1-0.2l2.2-3.6
			c1.8-2.9-0.4-6.7-3.8-6.6l-8,0.1l-0.2,0L17.7,10.8z"/>
	</g>
	<g>
		<path class="st0" d="M7.7,27.6l-0.1-0.2l-7-11.7l-0.1-0.1L7.2,3.9l0.1,0l9.8,0.2l0.2,0l0.3,6.8l-0.2,0l-4.2-0.1
			c-3.4-0.1-5.6,3.7-3.8,6.6l4.1,6.9l0.1,0.2L7.7,27.6z"/>
	</g>
</g>
</svg>
